<svg xmlns="http://www.w3.org/2000/svg" viewBox="0 0 680 160" width="680" height="160">
  <rect width="680" height="160" fill="white" rx="12"/>

  <!-- Circle badge -->
  <circle cx="78" cy="80" r="62" fill="#1B5BB5"/>
  <circle cx="78" cy="80" r="54" fill="white" fill-opacity="0.12"/>

  <!-- Snowflake icon -->
  <circle cx="78" cy="80" r="5" fill="white"/>
  <line x1="78" y1="52" x2="78" y2="108" stroke="white" stroke-width="5" stroke-linecap="round"/>
  <line x1="52" y1="80" x2="104" y2="80" stroke="white" stroke-width="5" stroke-linecap="round"/>
  <line x1="59" y1="61" x2="97" y2="99" stroke="white" stroke-width="3.5" stroke-linecap="round"/>
  <line x1="97" y1="61" x2="59" y2="99" stroke="white" stroke-width="3.5" stroke-linecap="round"/>
  <line x1="78" y1="52" x2="70" y2="60" stroke="white" stroke-width="3" stroke-linecap="round"/>
  <line x1="78" y1="52" x2="86" y2="60" stroke="white" stroke-width="3" stroke-linecap="round"/>
  <line x1="78" y1="108" x2="70" y2="100" stroke="white" stroke-width="3" stroke-linecap="round"/>
  <line x1="78" y1="108" x2="86" y2="100" stroke="white" stroke-width="3" stroke-linecap="round"/>
  <line x1="52" y1="80" x2="60" y2="72" stroke="white" stroke-width="3" stroke-linecap="round"/>
  <line x1="52" y1="80" x2="60" y2="88" stroke="white" stroke-width="3" stroke-linecap="round"/>
  <line x1="104" y1="80" x2="96" y2="72" stroke="white" stroke-width="3" stroke-linecap="round"/>
  <line x1="104" y1="80" x2="96" y2="88" stroke="white" stroke-width="3" stroke-linecap="round"/>

  <!-- Orange arc -->
  <path d="M 26 118 A 62 62 0 0 0 130 118" stroke="#F47A20" stroke-width="5" fill="none" stroke-linecap="round"/>

  <!-- AC Merchant text -->
  <text x="158" y="95" font-family="Arial Black, sans-serif" font-size="66" font-weight="900" fill="#F47A20" letter-spacing="-1">AC</text>
  <text x="272" y="95" font-family="Arial Black, sans-serif" font-size="66" font-weight="900" fill="#1B5BB5" letter-spacing="-1">Merchant</text>

  <!-- Underline -->
  <rect x="158" y="104" width="506" height="3" rx="2" fill="#F47A20" opacity="0.35"/>

  <!-- Tagline -->
  <text x="160" y="128" font-family="Arial, sans-serif" font-size="16.5" fill="#555" letter-spacing="2.5" font-weight="500">BUY  •  SELL  •  USED ACs</text>
</svg>
